<svg xmlns="http://www.w3.org/2000/svg" xmlns:xlink="http://www.w3.org/1999/xlink" viewBox="0 0 67.19 17.7"><defs><style>.cls-1{fill:url(#linear-gradient);}.cls-2{fill:url(#linear-gradient-2);}.cls-3{font-size:10.34px;fill:#231f20;font-family:MyriadPro-Cond, Myriad Pro;}</style><linearGradient id="linear-gradient" y1="8.85" x2="17.7" y2="8.85" gradientUnits="userSpaceOnUse"><stop offset="0" stop-color="#f26f4b"/><stop offset="1" stop-color="#ec2545"/></linearGradient><linearGradient id="linear-gradient-2" x1="6.47" y1="8.85" x2="11.22" y2="8.85" xlink:href="#linear-gradient"/></defs><g id="Layer_2" data-name="Layer 2"><g id="Layer_1-2" data-name="Layer 1"><path class="cls-1" d="M8.85,17.7A8.85,8.85,0,1,1,17.7,8.85,8.86,8.86,0,0,1,8.85,17.7Zm0-17A8.18,8.18,0,1,0,17,8.85,8.19,8.19,0,0,0,8.85.67Z"/><path class="cls-2" d="M7.55,14H9.62V8.8h1.45l.15-1.73H9.62v-1c0-.41.09-.57.48-.57h1.12V3.7H9.79c-1.54,0-2.24.68-2.24,2V7.07H6.47V8.83H7.55Z"/><text class="cls-3" transform="translate(21.75 11.88)">Fa Sol Yaa Fam</text></g></g></svg>