<svg width="25" height="25" viewBox="0 0 25 25" fill="none" xmlns="http://www.w3.org/2000/svg">
    <g clip-path="url(#clip0_201_2785)">
        <path
            d="M12.5 0C5.5918 0 0 5.59082 0 12.5C0 19.4082 5.59082 25 12.5 25C19.4082 25 25 19.4092 25 12.5C25 5.5918 19.4092 0 12.5 0ZM12.5 23.0469C6.6709 23.0469 1.95312 18.3296 1.95312 12.5C1.95312 6.6709 6.67041 1.95312 12.5 1.95312C18.3291 1.95312 23.0469 6.67041 23.0469 12.5C23.0469 18.3291 18.3296 23.0469 12.5 23.0469Z"
            fill="#E52730" />
    </g>
    <g clip-path="url(#clip1_201_2785)">
        <path
            d="M12.4979 10.9812C11.9016 10.385 11.3219 9.80525 10.7446 9.22791C10.3305 8.81382 9.91643 8.39974 9.50235 7.98566C9.05514 7.53846 8.38771 7.52443 7.9592 7.9482C7.52834 8.37907 7.5329 9.04177 7.97774 9.49134C8.90528 10.4236 9.83755 11.3512 10.7698 12.2834C10.8361 12.3497 10.9023 12.4159 10.9828 12.4964C10.9094 12.5698 10.8431 12.6361 10.7768 12.7024C9.84169 13.6375 8.90419 14.5702 7.97616 15.5125C7.85543 15.6332 7.75361 15.7965 7.69677 15.9575C7.5286 16.4238 7.72491 16.9326 8.14377 17.1905C8.56972 17.4555 9.107 17.3961 9.46448 17.0387C10.4304 16.0775 11.3892 15.114 12.3527 14.1504C12.3953 14.1078 12.438 14.0652 12.4948 14.0084C12.5492 14.0628 12.5941 14.1078 12.6415 14.1551C13.6045 15.1181 14.5628 16.0811 15.5306 17.0394C15.8547 17.3589 16.2476 17.4392 16.6737 17.2735C17.0926 17.11 17.3176 16.7857 17.3508 16.3408C17.3769 16.0023 17.2445 15.7231 17.0079 15.4864C16.0519 14.5352 15.1007 13.5793 14.1448 12.6234C14.1069 12.5855 14.0667 12.5453 14.0146 12.4932C14.0644 12.4435 14.107 12.4009 14.1472 12.3607C15.1108 11.3971 16.0719 10.4359 17.0355 9.47241C17.3764 9.1315 17.4522 8.64392 17.2417 8.22506C17.0335 7.81329 16.591 7.57909 16.1318 7.65021C15.888 7.68578 15.6797 7.79944 15.5045 7.97463C14.5836 8.90029 13.658 9.82121 12.7347 10.7445C12.6613 10.8179 12.5879 10.8913 12.4979 10.9812Z"
            fill="#E52730" />
    </g>
    <defs>
        <clipPath id="clip0_201_2785">
            <rect width="25" height="25" fill="white" />
        </clipPath>
        <clipPath id="clip1_201_2785">
            <rect width="12.8564" height="12.8564" fill="white"
                transform="matrix(-0.707107 -0.707107 -0.707107 0.707107 21.5912 12.5)" />
        </clipPath>
    </defs>
</svg>