<svg width="35" height="35" viewBox="0 0 35 35" fill="none" xmlns="http://www.w3.org/2000/svg">
<g clip-path="url(#clip0)">
<path d="M34.4891 34.4872H0.511719L5.55664 22.2734H29.4441L34.4891 34.4872Z" fill="#94D3E6"/>
<path d="M32.2605 29.0916L31.1388 26.3764H17.8572L13.1657 22.2734H11.2646H10.1442L8.44961 26.3764H3.86201L2.74023 29.0916H7.32783L5.09863 34.4872H8.1208L11.8785 25.3899L22.5727 34.4872H27.1315L20.9614 29.0916H32.2605Z" fill="#FFD217"/>
<path d="M8.5876 26.1029H4L5.69463 22H10.2822L8.5876 26.1029Z" fill="#86CF0E"/>
<path d="M31.2777 26.1029H17.9962L13.3047 22H29.5831L31.2777 26.1029Z" fill="#86CF0E"/>
<path d="M12.0155 25.1172L8.25781 34.2145H22.7097L12.0155 25.1172Z" fill="#86CF0E"/>
<path d="M17.5301 0.515625C11.7147 0.515625 7 5.26592 7 11.125C7 20.048 17.5301 28.2572 17.5301 28.2572C17.5301 28.2572 28.0602 20.0473 28.0602 11.125C28.0602 5.26592 23.3454 0.515625 17.5301 0.515625ZM17.5 16.3351C15.1806 16.3351 12.25 14.5851 12.8333 11.0851C12.8333 8.74792 15.2107 7.00195 17.5301 7.00195C19.8495 7.00195 22.1667 8.75179 22.1667 11.6685C22.1667 15.1685 19.8194 16.3351 17.5 16.3351Z" fill="#E52730"/>
<path d="M9.966 21.7567C10.0366 21.8553 10.1081 21.9539 10.1805 22.0526L10.5836 21.7567V21.2567H10.2242C9.40461 20.0919 8.71236 18.9331 8.15615 17.7926C7.02959 15.482 6.45879 13.2385 6.45879 11.1241C6.45879 4.99023 11.4121 0 17.5002 0C23.5883 0 28.5416 4.99023 28.5416 11.1234C28.5416 13.2385 27.9708 15.482 26.8442 17.7919L9.966 21.7567ZM9.966 21.7567H5.55644C5.35 21.7567 5.16406 21.8818 5.08476 22.0739L1.19171 31.5009L9.966 21.7567ZM22.5751 34.4698L22.4351 34.3507L11.8838 25.3751L11.8836 25.3749L22.5751 34.4698ZM22.5751 34.4698L22.759 34.4698M22.5751 34.4698L22.759 34.4698M22.759 34.4698L25.7613 34.4705L27.0929 34.4708L26.0906 33.5942L20.9552 29.1026C20.9533 29.101 20.9515 29.0985 20.9504 29.0944C20.9495 29.0905 20.9496 29.0868 20.9508 29.0832C20.954 29.0754 20.9593 29.0742 20.9612 29.0742H31.4934H32.2408L31.9555 28.3834L31.2596 26.6983L31.1319 26.3892H30.7975H28.5006M22.759 34.4698L28.5006 26.3892M28.5006 26.3892C28.5007 26.3843 28.5007 26.3793 28.5007 26.3744C28.5007 26.3695 28.5007 26.3646 28.5006 26.3597H30.3723H31.1198L30.8344 25.6688L29.565 22.596L29.4373 22.2869H29.1028H23.6286H23.3874L23.2372 22.4757C23.0852 22.6669 22.931 22.8576 22.773 23.0478L28.5006 26.3892ZM26.6636 26.3597H20.8956H19.6991L20.5399 25.5083C21.2402 24.7992 22.0048 23.9724 22.773 23.0479L26.6636 26.3597ZM26.6636 26.3597C26.6635 26.3646 26.6635 26.3695 26.6635 26.3744C26.6635 26.3793 26.6635 26.3843 26.6636 26.3892M26.6636 26.3597V26.3892M26.6636 26.3892H19.8422H19.6436L19.4991 26.5254C18.3565 27.6032 17.557 28.2304 17.5082 28.2681L17.5082 28.2681L17.5052 28.2705C17.5044 28.2711 17.5034 28.2718 17.5009 28.2718C17.5006 28.2718 17.5003 28.2718 17.5001 28.2717C17.4996 28.2717 17.4992 28.2716 17.4987 28.2714C17.4982 28.2712 17.4969 28.2707 17.4948 28.2691L17.2298 28.6098L26.6636 26.3892ZM1.32719 32.521L1.13359 32.982L1.3252 32.5202L1.32719 32.521ZM1.32719 32.521C1.32689 32.5209 1.32662 32.5208 1.32637 32.5207M1.32719 32.521L1.32637 32.5207M1.32637 32.5207C1.32974 32.5219 1.33068 32.5217 1.32978 32.5217C1.33044 32.5217 1.33258 32.5214 1.33505 32.5198C1.33611 32.5191 1.33699 32.5183 1.33771 32.5174C1.338 32.517 1.33837 32.5166 1.33878 32.5159L1.32637 32.5207ZM29.4541 22.264L29.4542 22.2641L34.4989 34.4775C34.5012 34.483 34.5006 34.4888 34.4974 34.4936L34.497 34.4941C34.4936 34.4992 34.4898 34.5 34.4882 34.5H0.510836C0.509082 34.5 0.507817 34.4996 0.50668 34.499C0.505672 34.4985 0.504398 34.4976 0.503032 34.4957C0.499522 34.4898 0.499198 34.4831 0.501378 34.4777C0.501404 34.4776 0.501429 34.4775 0.501455 34.4775L0.931223 33.4393C0.934138 33.4406 0.93706 33.4418 0.939993 33.443L0.941975 33.4439C0.945841 33.4455 0.949714 33.447 0.953593 33.4486L0.817105 33.7788L0.53153 34.4698H1.2792H4.75869H5.09312L5.22081 34.1607L7.02413 29.7953L7.30954 29.1044H6.56201H3.08183H2.7473L2.61966 29.4136L1.72809 31.5735C1.72548 31.5724 1.72287 31.5713 1.72025 31.5702L1.71982 31.57C1.71535 31.5681 1.71088 31.5663 1.70641 31.5645L5.5469 22.2648L5.54693 22.2647C5.54972 22.258 5.55439 22.2567 5.55644 22.2567H10.5836H11.5707L10.9867 21.4609C10.0237 20.1486 9.22645 18.8466 8.60556 17.5734C7.50525 15.3167 6.95879 13.148 6.95879 11.1241C6.95879 5.26286 11.6918 0.5 17.5002 0.5C23.3087 0.5 28.0416 5.26288 28.0416 11.1234C28.0416 13.148 27.4951 15.3167 26.3948 17.5727L26.3948 17.5727C25.774 18.8458 24.9761 20.1479 24.0136 21.4604L23.4301 22.2561H24.4168H29.4446C29.4467 22.2561 29.4513 22.2573 29.4541 22.264ZM1.32978 32.5384L1.14459 32.9865L1.34018 32.5132L1.34005 32.5135L1.33997 32.5137L1.32978 32.5384ZM1.34029 32.513C1.34028 32.513 1.34027 32.513 1.34026 32.513L1.33306 32.4922C1.33509 32.493 1.33602 32.4938 1.33677 32.4945C1.33778 32.4956 1.33909 32.4974 1.34013 32.4999C1.34117 32.5024 1.34158 32.5049 1.34159 32.5068C1.3416 32.5083 1.34139 32.5102 1.34029 32.513ZM1.2792 33.5204V33.9698L1.74129 34.1608L1.2792 33.5204ZM1.1225 32.9772L1.31999 32.5002C1.31886 32.5029 1.31865 32.5048 1.31866 32.5064C1.31867 32.5083 1.31908 32.5108 1.32012 32.5133C1.32116 32.5158 1.32246 32.5176 1.32347 32.5186L1.1225 32.9772ZM1.53727 32.0358L1.34037 32.5128L1.53727 32.0358ZM1.32008 32.4999C1.3201 32.4999 1.32012 32.4999 1.32013 32.4998L1.32008 32.4999ZM22.7713 23.0092L22.7714 23.009C22.9778 22.7601 23.1764 22.5141 23.3678 22.2699C23.3734 22.2632 23.3806 22.2542 23.3886 22.2436C27.169 17.416 28.0189 13.5819 28.0189 11.1241C28.0189 5.28568 23.304 0.530176 17.5002 0.530176C11.6964 0.530176 6.98144 5.28568 6.98144 11.1241C6.98144 13.5842 7.83275 17.4203 11.6167 22.2497L11.6353 22.2735L11.6376 22.2758C11.8318 22.5228 12.0333 22.7726 12.2428 23.0249L12.243 23.0251C14.3143 25.5182 16.3998 27.3312 17.1809 27.9794L17.5005 28.2446L17.8198 27.9791C18.6025 27.3285 20.6984 25.5066 22.7713 23.0092ZM5.89756 22.2862H5.56313L5.43544 22.5953L4.166 25.6681L3.88057 26.359H4.62812H8.1083H8.44272L8.57041 26.0499L9.83985 22.9771L10.1253 22.2862H9.37773H5.89756ZM8.42479 33.7789L8.13939 34.4698H8.88691H21.1745H22.5339L21.4985 33.589L12.406 25.8541L11.8824 25.4087L11.6199 26.0441L8.42479 33.7789ZM17.2299 28.6099L17.4956 28.2698C17.3999 28.195 14.8338 26.1822 12.228 23.047C12.07 22.8568 11.9158 22.6662 11.7638 22.4751L11.6137 22.2862H11.3725H10.4852H10.1507L10.023 22.5953L8.45898 26.3811L8.45892 26.3812C8.45613 26.3879 8.45147 26.3892 8.44941 26.3892H4.20293H3.86846L3.74079 26.6983L3.04489 28.3834L2.75958 29.0742H3.50703H7.32832C7.33007 29.0742 7.33134 29.0746 7.33247 29.0752C7.33359 29.0758 7.33504 29.0769 7.33657 29.0792C7.33933 29.0834 7.34059 29.0896 7.33776 29.0966C7.33774 29.0966 7.33772 29.0967 7.3377 29.0967L5.40331 33.7789L5.11787 34.4698H5.86543H7.77949H8.11392L8.24161 34.1607L11.8688 25.3807L11.8693 25.3794C11.8699 25.3778 11.8708 25.3765 11.8719 25.3754L17.2299 28.6099ZM26.9929 34.3462L27.1343 34.4698H27.3221H33.7226H34.4701L34.1847 33.7789L32.3814 29.4135L32.2537 29.1044H31.9192H22.3305H20.9992L22.0013 29.9808L26.9929 34.3462Z" fill="#38395B" stroke="black"/>
<circle cx="17.5" cy="11.5" r="4.95" stroke="black" stroke-width="1.1"/>
</g>
<defs>
<clipPath id="clip0">
<rect width="35" height="35" fill="white"/>
</clipPath>
</defs>
</svg>
